<svg width="200" height="34" viewBox="0 0 200 34" fill="none" xmlns="http://www.w3.org/2000/svg">
<path d="M1.9612 6.75107L0 5.92133V3.69611C0.452585 3.64583 0.993174 3.58297 1.62176 3.50754C2.25036 3.43211 2.87895 3.36925 3.50754 3.31896C4.13613 3.24353 4.67672 3.19324 5.1293 3.1681C5.58189 3.14295 5.88361 3.14295 6.03447 3.1681C6.31105 3.24353 6.56249 3.40696 6.78878 3.6584C7.01507 3.88469 7.21622 4.12356 7.39223 4.37499C7.56823 4.62643 7.68138 4.82758 7.73167 4.97844V23.4213L10.3717 24.251L9.08942 26.4762C8.63684 26.5265 8.12139 26.5894 7.54309 26.6648C6.96479 26.7403 6.41163 26.8031 5.88361 26.8534C5.35559 26.9288 4.89044 26.9791 4.48814 27.0043C4.08584 27.0294 3.82183 27.0294 3.69611 27.0043C3.41953 26.9037 3.15553 26.7403 2.90409 26.514C2.6778 26.2877 2.47665 26.0488 2.30064 25.7974C2.14978 25.5459 2.03663 25.3448 1.9612 25.1939V6.75107ZM13.7284 25.1939V11.3901C13.7284 10.4095 13.6404 9.6803 13.4644 9.20257C13.3136 8.72484 13.0998 8.41055 12.8233 8.25968C12.5718 8.08368 12.2701 7.99567 11.9181 7.99567C11.6918 7.99567 11.4404 8.04596 11.1638 8.14654C10.8872 8.24711 10.598 8.37283 10.2963 8.52369L9.278 5.54417C9.73059 5.2173 10.2209 4.86529 10.7489 4.48814C11.2769 4.11098 11.7546 3.79669 12.1821 3.54525C12.6095 3.26867 12.8484 3.13038 12.8987 3.13038C13.4267 3.10524 13.9924 3.13038 14.5959 3.20581C15.2245 3.2561 15.8279 3.3441 16.4062 3.46982C16.9845 3.59554 17.4748 3.75897 17.8771 3.96012C18.2543 4.41271 18.556 4.96587 18.7823 5.6196C19.0086 6.24819 19.172 6.90193 19.2726 7.58081C19.3983 8.25968 19.4612 8.91342 19.4612 9.54201V23.4213L22.1013 24.251L20.8566 26.4762C20.4041 26.5265 19.8886 26.5894 19.3103 26.6648C18.7571 26.7403 18.204 26.8031 17.6508 26.8534C17.0977 26.9288 16.6199 26.9791 16.2176 27.0043C15.8153 27.0294 15.5388 27.0294 15.3879 27.0043C15.1365 26.9037 14.885 26.7403 14.6336 26.514C14.4073 26.2625 14.2062 26.0111 14.0301 25.7596C13.8793 25.5082 13.7787 25.3196 13.7284 25.1939ZM25.4579 25.1939V11.3901C25.4579 10.4095 25.3699 9.6803 25.1939 9.20257C25.0179 8.72484 24.779 8.41055 24.4773 8.25968C24.1756 8.08368 23.811 7.99567 23.3836 7.99567C23.1573 7.99567 22.8933 8.04596 22.5916 8.14654C22.2898 8.24711 21.9755 8.3854 21.6487 8.56141L21.0075 5.54417C21.4098 5.2173 21.8624 4.86529 22.3653 4.48814C22.8681 4.11098 23.3081 3.79669 23.6853 3.54525C24.0876 3.26867 24.339 3.13038 24.4396 3.13038C24.8671 3.10524 25.4076 3.13038 26.0614 3.20581C26.7151 3.2561 27.3688 3.3441 28.0226 3.46982C28.6763 3.59554 29.1918 3.75897 29.5689 3.96012C30.1472 4.68929 30.5621 5.58189 30.8135 6.63792C31.065 7.66881 31.1781 8.92599 31.153 10.4095L31.1907 23.4213L33.1519 24.2133V26.4762C32.6993 26.5265 32.1587 26.5894 31.5301 26.6648C30.9015 26.7403 30.2729 26.8031 29.6443 26.8534C29.0158 26.9288 28.4752 26.9791 28.0226 27.0043C27.57 27.0294 27.2808 27.0294 27.1551 27.0043C26.8785 26.9037 26.6145 26.7403 26.3631 26.514C26.1368 26.2625 25.9357 26.0111 25.7597 25.7596C25.6088 25.5082 25.5082 25.3196 25.4579 25.1939ZM11.3146 5.54417V22.1013C11.3146 22.2521 11.2266 22.5287 11.0506 22.931C10.8746 23.3081 10.6483 23.7482 10.3717 24.251H9.278V5.54417H11.3146ZM23.0441 5.54417V22.1013C23.0441 22.2521 22.9561 22.5287 22.7801 22.931C22.6041 23.3081 22.3778 23.7482 22.1013 24.251H21.0075V5.54417H23.0441Z" fill="#B7D2BC"/>
<path d="M37.787 27.0043C37.7116 27.0043 37.523 26.8911 37.2213 26.6648C36.9196 26.4637 36.6304 26.2374 36.3539 25.9859C36.1024 25.7345 35.9767 25.5585 35.9767 25.4579V12.333L34.4681 11.8427V9.65515C34.4681 9.65515 34.7069 9.61744 35.1847 9.54201C35.6876 9.46658 36.2784 9.37857 36.9573 9.278C37.6362 9.17743 38.2522 9.08942 38.8054 9.01399C39.3837 8.91342 39.7357 8.86313 39.8614 8.86313C39.962 8.86313 40.1254 8.97628 40.3517 9.20257C40.6031 9.40372 40.8294 9.64258 41.0306 9.91916C41.2569 10.1706 41.37 10.3466 41.37 10.4472V23.5722L42.8786 24.0625V26.2122C42.8786 26.2122 42.6523 26.2625 42.1998 26.3631C41.7472 26.4385 41.194 26.5265 40.5403 26.6271C39.9117 26.7277 39.3334 26.8157 38.8054 26.8911C38.2773 26.9665 37.9379 27.0043 37.787 27.0043ZM35.5996 2.6778C35.5996 2.62751 35.7504 2.46408 36.0521 2.1875C36.379 1.91092 36.7436 1.60919 37.1459 1.28233C37.5733 0.930314 37.9505 0.62859 38.2773 0.377154C38.6042 0.125718 38.8054 0 38.8808 0C39.0317 0 39.2705 0.150862 39.5974 0.452586C39.9494 0.729166 40.3014 1.0686 40.6534 1.4709C41.0054 1.8732 41.3072 2.25036 41.5586 2.60237C41.8352 2.92923 41.9609 3.15553 41.9357 3.28124L41.6717 4.29956C41.6466 4.40014 41.4832 4.58871 41.1814 4.86529C40.8797 5.14187 40.5277 5.4436 40.1254 5.77046C39.7482 6.07219 39.3837 6.3362 39.0317 6.56249C38.6796 6.78878 38.4534 6.90193 38.3528 6.90193C38.2271 6.90193 38.0008 6.76364 37.6739 6.48706C37.347 6.18533 37.0076 5.84589 36.6556 5.46874C36.3036 5.06644 36.0018 4.68929 35.7504 4.33728C35.5241 3.98527 35.4235 3.75897 35.4487 3.6584L35.5996 2.6778Z" fill="#B7D2BC"/>
<path d="M47.5456 27.0043C47.445 27.0043 47.2565 26.9037 46.9799 26.7025C46.7033 26.5014 46.4393 26.2751 46.1879 26.0237C45.9364 25.7722 45.8107 25.5962 45.8107 25.4956V12.4084L44.3021 11.8427V9.65515C44.3021 9.65515 44.541 9.61744 45.0187 9.54201C45.4964 9.44143 46.0621 9.35343 46.7159 9.278C47.3948 9.17743 48.0108 9.08942 48.5639 9.01399C49.1422 8.91342 49.4943 8.86313 49.62 8.86313C49.6954 8.86313 49.8463 8.97628 50.0726 9.20257C50.2989 9.40372 50.5126 9.63001 50.7137 9.88145C50.9149 10.1329 51.0154 10.2963 51.0154 10.3717V11.3523C51.3172 11.1261 51.6692 10.8746 52.0715 10.598C52.4738 10.2963 52.8509 10.0197 53.2029 9.7683C53.5549 9.51687 53.8567 9.30314 54.1081 9.12714C54.3847 8.95113 54.5607 8.86313 54.6361 8.86313C55.843 8.86313 56.8865 9.03914 57.7665 9.39115C58.6465 9.74316 59.3128 10.3466 59.7654 11.2015C60.218 12.0312 60.4443 13.1753 60.4443 14.6336V23.459L61.9529 24.0625V26.2122C61.9529 26.2122 61.7141 26.25 61.2363 26.3254C60.7586 26.4008 60.1929 26.4888 59.5391 26.5894C58.8854 26.7151 58.2945 26.8157 57.7665 26.8911C57.2385 26.9665 56.9116 27.0043 56.7859 27.0043C56.6853 27.0043 56.4968 26.9037 56.2202 26.7025C55.9436 26.5014 55.6796 26.2751 55.4282 26.0237C55.1767 25.7722 55.051 25.5962 55.051 25.4956V14.709C55.051 14.0553 54.9504 13.5901 54.7493 13.3136C54.5733 13.037 54.3721 12.8735 54.1458 12.8233C53.9195 12.7478 53.731 12.7101 53.5801 12.7101C53.5298 12.7101 53.3664 12.7604 53.0898 12.861C52.8384 12.9615 52.5492 13.0873 52.2223 13.2381C51.8955 13.389 51.556 13.5398 51.204 13.6907V23.4967L52.7126 24.0625V26.2122C52.7126 26.2122 52.4738 26.2625 51.996 26.3631C51.5435 26.4385 50.9903 26.5265 50.3366 26.6271C49.708 26.7277 49.1171 26.8157 48.5639 26.8911C48.0108 26.9665 47.6713 27.0043 47.5456 27.0043Z" fill="#B7D2BC"/>
<path d="M69.1899 18.4429C69.1899 19.5492 69.3156 20.4543 69.567 21.1584C69.8436 21.8624 70.183 22.3778 70.5853 22.7047C70.9876 23.0316 71.4151 23.195 71.8677 23.195C71.8928 23.195 72.1191 23.1824 72.5465 23.1573C72.9991 23.1321 73.5397 23.107 74.1683 23.0819C74.7969 23.0567 75.4129 23.0316 76.0164 23.0064C76.6198 22.9813 77.1101 22.9561 77.4873 22.931V25.1939C77.1353 25.2945 76.6324 25.4579 75.9787 25.6842C75.3249 25.8854 74.646 26.0865 73.942 26.2877C73.238 26.4888 72.5968 26.6523 72.0185 26.778C71.4654 26.9288 71.0756 27.0043 70.8493 27.0043C69.4162 27.0043 68.1464 26.69 67.0401 26.0614C65.9589 25.4328 65.1166 24.515 64.5132 23.3081C63.9348 22.1013 63.6457 20.6429 63.6457 18.9332C63.6457 17.7263 63.7337 16.5822 63.9097 15.501C64.1109 14.3947 64.3371 13.5524 64.5886 12.9741C64.84 12.6724 65.2675 12.2952 65.8709 11.8427C66.4995 11.3901 67.1784 10.9375 67.9075 10.4849C68.6619 10.0323 69.3533 9.65516 69.9819 9.35343C70.6105 9.02656 71.0631 8.86313 71.3397 8.86313C72.798 8.86313 74.03 9.12714 75.0358 9.65515C76.0667 10.158 76.8335 11.0758 77.3364 12.4084C77.8644 13.741 78.1033 15.6519 78.053 18.1411L67.0778 19.3103V17.0851L72.8483 16.0291C72.8734 14.7216 72.7603 13.6781 72.5088 12.8987C72.2825 12.1192 71.8802 11.6792 71.3019 11.5786C71.1762 11.5535 70.9876 11.5284 70.7362 11.5032C70.4848 11.4781 70.2962 11.5032 70.1705 11.5786C69.8939 11.7546 69.655 12.4461 69.4539 13.653C69.2779 14.8347 69.1899 16.4314 69.1899 18.4429Z" fill="#B7D2BC"/>
<path d="M87.8086 27.0043C87.5069 27.0043 87.0166 26.9917 86.3377 26.9665C85.684 26.9414 84.9423 26.9037 84.1125 26.8534C83.3079 26.8031 82.5033 26.7403 81.6987 26.6648C80.9193 26.6145 80.2781 26.5642 79.7752 26.514L79.8884 20.3663H82.4907L83.2828 23.3459C83.6851 23.4716 84.1502 23.6099 84.6782 23.7607C85.2063 23.9116 85.6966 24.0373 86.1491 24.1379C86.6017 24.2133 86.9537 24.251 87.2052 24.251C87.3309 24.251 87.444 24.1756 87.5446 24.0247C87.6703 23.8739 87.7583 23.6853 87.8086 23.459C87.8841 23.2327 87.9218 23.019 87.9218 22.8178C87.9218 22.4155 87.7709 22.0761 87.4692 21.7995C87.1675 21.4978 86.7275 21.1835 86.1491 20.8566C85.596 20.5298 84.9171 20.14 84.1125 19.6875C82.9811 19.0337 82.101 18.4429 81.4724 17.9148C80.869 17.3617 80.4541 16.8085 80.2278 16.2554C80.0015 15.6771 79.8884 15.0359 79.8884 14.3319C79.8884 14.005 79.901 13.6656 79.9261 13.3136C79.9764 12.9615 80.0392 12.6472 80.1147 12.3707C80.3661 12.0689 80.7056 11.7169 81.133 11.3146C81.5604 10.9123 82.013 10.5352 82.4907 10.1832C82.9685 9.80602 83.4211 9.49172 83.8485 9.24028C84.2759 8.98885 84.6154 8.86313 84.8668 8.86313C85.1937 8.86313 85.6714 8.8757 86.3 8.90085C86.9537 8.90085 87.6452 8.92599 88.3744 8.97628C89.1035 9.00142 89.795 9.03914 90.4487 9.08942C91.1024 9.11457 91.6305 9.15228 92.0328 9.20257L91.9196 14.4827H89.0155L88.7515 12.3707C88.6509 12.3204 88.4246 12.2701 88.0726 12.2198C87.7206 12.1444 87.3183 12.0689 86.8657 11.9935C86.4383 11.9181 86.036 11.8552 85.6588 11.8049C85.3068 11.7295 85.068 11.6918 84.9423 11.6918C84.8165 11.6918 84.716 11.7421 84.6405 11.8427C84.5651 11.9432 84.5022 12.0689 84.4519 12.2198C84.4268 12.3707 84.4142 12.5215 84.4142 12.6724C84.4142 13.0998 84.5902 13.4896 84.9423 13.8416C85.2943 14.1684 85.7091 14.4702 86.1869 14.7467C86.6646 15.0233 87.0795 15.2748 87.4315 15.501C87.9846 15.8028 88.5629 16.1422 89.1664 16.5194C89.795 16.8965 90.3984 17.2988 90.9767 17.7263C91.5802 18.1537 92.0579 18.6189 92.4099 19.1217C92.7619 19.6246 92.9379 20.1652 92.9379 20.7435C92.9379 21.0452 92.9128 21.4098 92.8625 21.8372C92.8374 22.2647 92.7619 22.6293 92.6362 22.931C92.4351 23.2579 92.1333 23.6602 91.731 24.1379C91.3539 24.5905 90.9139 25.0431 90.411 25.4956C89.9333 25.9231 89.4555 26.2877 88.9778 26.5894C88.5252 26.866 88.1355 27.0043 87.8086 27.0043Z" fill="#B7D2BC"/>
<path d="M99.0741 27.042C99.0238 27.042 98.8855 26.9665 98.6592 26.8157C98.4329 26.69 98.3197 26.6271 98.3197 26.6271L95.0385 12.333L93.4167 11.8804V9.65515C93.4167 9.65515 93.643 9.61744 94.0956 9.54201C94.5733 9.46658 95.1265 9.37857 95.7551 9.278C96.4088 9.17743 96.9871 9.08942 97.49 9.01399C97.9929 8.91342 98.2946 8.86313 98.3952 8.86313C98.4958 8.86313 98.6718 8.95113 98.9232 9.12714C99.1998 9.30314 99.4638 9.50429 99.7152 9.73059C99.9667 9.95688 100.105 10.1329 100.13 10.2586L101.714 18.8577L102.28 21.7995H102.657L105.222 14.7845L104.392 12.333L102.695 11.8804V9.65515C102.695 9.65515 102.921 9.61744 103.374 9.54201C103.851 9.46658 104.405 9.37857 105.033 9.278C105.662 9.17743 106.227 9.08942 106.73 9.01399C107.258 8.91342 107.573 8.86313 107.673 8.86313C107.774 8.86313 107.95 8.95113 108.201 9.12714C108.478 9.30314 108.742 9.50429 108.993 9.73059C109.245 9.95688 109.383 10.1329 109.408 10.2586L111.294 18.8577L111.973 21.7995H112.35L114.349 12.0689L111.86 11.7672V9.35343C111.86 9.35343 112.048 9.34086 112.425 9.31572C112.802 9.26543 113.268 9.21514 113.821 9.16485C114.374 9.11457 114.94 9.07685 115.518 9.05171C116.121 9.00142 116.624 8.96371 117.027 8.93856C117.454 8.88827 117.705 8.86313 117.781 8.86313C117.881 8.86313 118.02 8.98885 118.196 9.24028C118.397 9.46658 118.573 9.71801 118.724 9.99459C118.9 10.2712 118.988 10.4723 118.988 10.598L114.877 26.3254C114.877 26.3254 114.701 26.3505 114.349 26.4008C113.997 26.4511 113.569 26.514 113.066 26.5894C112.564 26.6397 112.048 26.7025 111.52 26.778C111.017 26.8534 110.565 26.9163 110.162 26.9665C109.785 27.0168 109.572 27.042 109.521 27.042C109.446 27.042 109.295 26.9665 109.069 26.8157C108.867 26.69 108.767 26.6271 108.767 26.6271L106.806 19.8006H106.504L104.392 26.3254C104.392 26.3254 104.216 26.3505 103.864 26.4008C103.537 26.4511 103.122 26.514 102.619 26.5894C102.116 26.6397 101.601 26.7025 101.073 26.778C100.545 26.8534 100.092 26.9163 99.7152 26.9665C99.3381 27.0168 99.1243 27.042 99.0741 27.042Z" fill="#B7D2BC"/>
<path d="M125.653 18.4429C125.653 19.5492 125.778 20.4543 126.03 21.1584C126.306 21.8624 126.646 22.3778 127.048 22.7047C127.45 23.0316 127.878 23.195 128.33 23.195C128.355 23.195 128.582 23.1824 129.009 23.1573C129.462 23.1321 130.002 23.107 130.631 23.0819C131.26 23.0567 131.876 23.0316 132.479 23.0064C133.082 22.9813 133.573 22.9561 133.95 22.931V25.1939C133.598 25.2945 133.095 25.4579 132.441 25.6842C131.788 25.8854 131.109 26.0865 130.405 26.2877C129.701 26.4888 129.06 26.6523 128.481 26.778C127.928 26.9288 127.538 27.0043 127.312 27.0043C125.879 27.0043 124.609 26.69 123.503 26.0614C122.422 25.4328 121.579 24.515 120.976 23.3081C120.398 22.1013 120.108 20.6429 120.108 18.9332C120.108 17.7263 120.196 16.5822 120.372 15.501C120.574 14.3947 120.8 13.5524 121.051 12.9741C121.303 12.6724 121.73 12.2952 122.334 11.8427C122.962 11.3901 123.641 10.9375 124.37 10.4849C125.125 10.0323 125.816 9.65516 126.445 9.35343C127.073 9.02656 127.526 8.86313 127.802 8.86313C129.261 8.86313 130.493 9.12714 131.498 9.65515C132.529 10.158 133.296 11.0758 133.799 12.4084C134.327 13.741 134.566 15.6519 134.516 18.1411L123.54 19.3103V17.0851L129.311 16.0291C129.336 14.7216 129.223 13.6781 128.972 12.8987C128.745 12.1192 128.343 11.6792 127.765 11.5786C127.639 11.5535 127.45 11.5284 127.199 11.5032C126.947 11.4781 126.759 11.5032 126.633 11.5786C126.357 11.7546 126.118 12.4461 125.917 13.653C125.741 14.8347 125.653 16.4314 125.653 18.4429Z" fill="#B7D2BC"/>
<path d="M141.895 18.4429C141.895 19.5492 142.021 20.4543 142.272 21.1584C142.549 21.8624 142.888 22.3778 143.291 22.7047C143.693 23.0316 144.12 23.195 144.573 23.195C144.598 23.195 144.824 23.1824 145.252 23.1573C145.704 23.1321 146.245 23.107 146.874 23.0819C147.502 23.0567 148.118 23.0316 148.722 23.0064C149.325 22.9813 149.815 22.9561 150.193 22.931V25.1939C149.841 25.2945 149.338 25.4579 148.684 25.6842C148.03 25.8854 147.351 26.0865 146.647 26.2877C145.943 26.4888 145.302 26.6523 144.724 26.778C144.171 26.9288 143.781 27.0043 143.555 27.0043C142.122 27.0043 140.852 26.69 139.745 26.0614C138.664 25.4328 137.822 24.515 137.219 23.3081C136.64 22.1013 136.351 20.6429 136.351 18.9332C136.351 17.7263 136.439 16.5822 136.615 15.501C136.816 14.3947 137.043 13.5524 137.294 12.9741C137.545 12.6724 137.973 12.2952 138.576 11.8427C139.205 11.3901 139.884 10.9375 140.613 10.4849C141.367 10.0323 142.059 9.65516 142.687 9.35343C143.316 9.02656 143.768 8.86313 144.045 8.86313C145.503 8.86313 146.735 9.12714 147.741 9.65515C148.772 10.158 149.539 11.0758 150.042 12.4084C150.57 13.741 150.809 15.6519 150.758 18.1411L139.783 19.3103V17.0851L145.554 16.0291C145.579 14.7216 145.466 13.6781 145.214 12.8987C144.988 12.1192 144.586 11.6792 144.007 11.5786C143.882 11.5535 143.693 11.5284 143.442 11.5032C143.19 11.4781 143.002 11.5032 142.876 11.5786C142.599 11.7546 142.36 12.4461 142.159 13.653C141.983 14.8347 141.895 16.4314 141.895 18.4429Z" fill="#B7D2BC"/>
<path d="M162.475 8.86313C163.758 8.86313 164.889 9.20257 165.87 9.88145C166.85 10.5352 167.604 11.4906 168.133 12.7478C168.686 14.005 168.962 15.5136 168.962 17.2737C168.962 18.4303 168.862 19.5366 168.661 20.5926C168.459 21.6235 168.233 22.4155 167.982 22.9687C167.755 23.2704 167.328 23.6476 166.699 24.1002C166.096 24.5528 165.43 25.0053 164.7 25.4579C163.971 25.8854 163.292 26.25 162.664 26.5517C162.035 26.8534 161.583 27.0043 161.306 27.0043C161.18 27.0043 160.916 26.9791 160.514 26.9288C160.137 26.9037 159.672 26.8408 159.119 26.7403V29.9838L160.74 30.5495V32.737C160.413 32.8124 159.961 32.9004 159.383 33.001C158.804 33.1016 158.201 33.1896 157.572 33.265C156.969 33.3405 156.416 33.4033 155.913 33.4536C155.435 33.5039 155.133 33.529 155.008 33.529C154.932 33.529 154.769 33.4285 154.517 33.2273C154.291 33.0262 154.077 32.7999 153.876 32.5484C153.675 32.3221 153.574 32.1587 153.574 32.0581L153.801 25.4579V12.4084L152.292 11.8427V9.65515C152.594 9.60487 153.009 9.54201 153.537 9.46658C154.065 9.366 154.618 9.278 155.196 9.20257C155.774 9.10199 156.277 9.02656 156.705 8.97628C157.132 8.90085 157.421 8.86313 157.572 8.86313C157.673 8.86313 157.824 8.97628 158.025 9.20257C158.251 9.40372 158.465 9.63001 158.666 9.88145C158.892 10.1077 159.005 10.2712 159.005 10.3717V11.4278C159.357 11.1512 159.785 10.8118 160.288 10.4095C160.816 10.0072 161.293 9.65516 161.721 9.35343C162.173 9.02656 162.425 8.86313 162.475 8.86313ZM161.532 12.6724C161.457 12.6724 161.281 12.7352 161.004 12.861C160.728 12.9867 160.413 13.1375 160.061 13.3136C159.735 13.4896 159.445 13.6278 159.194 13.7284V23.2704C159.496 23.4464 159.848 23.635 160.25 23.8362C160.677 24.0373 161.067 24.1882 161.419 24.2887C161.796 24.3893 162.06 24.4145 162.211 24.3642C162.412 24.2385 162.576 23.9367 162.701 23.459C162.852 22.9813 162.965 22.2773 163.041 21.3469C163.141 20.4166 163.192 19.2223 163.192 17.764C163.192 16.7582 163.104 15.8782 162.928 15.1239C162.777 14.3444 162.563 13.741 162.287 13.3136C162.035 12.8861 161.784 12.6724 161.532 12.6724Z" fill="#B7D2BC"/>
<path d="M176.554 18.4429C176.554 19.5492 176.679 20.4543 176.931 21.1584C177.207 21.8624 177.547 22.3778 177.949 22.7047C178.351 23.0316 178.779 23.195 179.231 23.195C179.257 23.195 179.483 23.1824 179.91 23.1573C180.363 23.1321 180.904 23.107 181.532 23.0819C182.161 23.0567 182.777 23.0316 183.38 23.0064C183.984 22.9813 184.474 22.9561 184.851 22.931V25.1939C184.499 25.2945 183.996 25.4579 183.342 25.6842C182.689 25.8854 182.01 26.0865 181.306 26.2877C180.602 26.4888 179.961 26.6523 179.382 26.778C178.829 26.9288 178.439 27.0043 178.213 27.0043C176.78 27.0043 175.51 26.69 174.404 26.0614C173.323 25.4328 172.48 24.515 171.877 23.3081C171.299 22.1013 171.009 20.6429 171.009 18.9332C171.009 17.7263 171.097 16.5822 171.273 15.501C171.475 14.3947 171.701 13.5524 171.952 12.9741C172.204 12.6724 172.631 12.2952 173.235 11.8427C173.863 11.3901 174.542 10.9375 175.271 10.4849C176.026 10.0323 176.717 9.65516 177.346 9.35343C177.974 9.02656 178.427 8.86313 178.703 8.86313C180.162 8.86313 181.394 9.12714 182.4 9.65515C183.43 10.158 184.197 11.0758 184.7 12.4084C185.228 13.741 185.467 15.6519 185.417 18.1411L174.442 19.3103V17.0851L180.212 16.0291C180.237 14.7216 180.124 13.6781 179.873 12.8987C179.646 12.1192 179.244 11.6792 178.666 11.5786C178.54 11.5535 178.351 11.5284 178.1 11.5032C177.849 11.4781 177.66 11.5032 177.534 11.5786C177.258 11.7546 177.019 12.4461 176.818 13.653C176.642 14.8347 176.554 16.4314 176.554 18.4429Z" fill="#B7D2BC"/>
<path d="M190.194 27.0043C190.093 27.0043 189.905 26.9037 189.628 26.7025C189.352 26.5014 189.088 26.2751 188.836 26.0237C188.585 25.7722 188.459 25.5962 188.459 25.4956V12.333L186.95 11.8427V9.65515C186.95 9.65515 187.189 9.61744 187.667 9.54201C188.145 9.44143 188.698 9.35343 189.327 9.278C189.98 9.17743 190.584 9.08942 191.137 9.01399C191.69 8.91342 192.029 8.86313 192.155 8.86313C192.256 8.86313 192.419 8.97628 192.645 9.20257C192.897 9.42886 193.123 9.66773 193.324 9.91916C193.551 10.1706 193.664 10.3466 193.664 10.4472V12.1067C193.966 11.7546 194.28 11.3901 194.607 11.0129C194.934 10.6358 195.248 10.2837 195.55 9.95688C195.876 9.63001 196.153 9.366 196.379 9.16485C196.606 8.9637 196.756 8.86313 196.832 8.86313C197.31 8.86313 197.812 8.91342 198.341 9.01399C198.894 9.11457 199.296 9.21514 199.547 9.31572C199.598 9.44143 199.686 9.69287 199.811 10.07C199.937 10.422 200 10.7489 200 11.0506C200 11.2266 199.925 11.5158 199.774 11.9181C199.623 12.2952 199.447 12.6975 199.246 13.125C199.045 13.5273 198.856 13.8793 198.68 14.181C198.504 14.4827 198.378 14.6462 198.303 14.6713C198.253 14.621 198.077 14.533 197.775 14.4073C197.473 14.2564 197.146 14.1181 196.794 13.9924C196.467 13.8667 196.191 13.8039 195.964 13.8039C195.889 13.8039 195.763 13.829 195.587 13.8793C195.411 13.9296 195.21 14.005 194.984 14.1056C194.758 14.181 194.544 14.2564 194.343 14.3319C194.142 14.4073 193.978 14.4827 193.852 14.5582V23.1196L196.342 23.7984V26.0991C196.342 26.0991 196.153 26.1368 195.776 26.2122C195.399 26.2625 194.921 26.338 194.343 26.4385C193.79 26.514 193.211 26.602 192.608 26.7025C192.004 26.8031 191.476 26.8785 191.024 26.9288C190.571 26.9791 190.295 27.0043 190.194 27.0043Z" fill="#B7D2BC"/>
</svg>
